<?xml version="1.0" standalone="no"?>
<!DOCTYPE svg PUBLIC "-//W3C//DTD SVG 20010904//EN"
 "http://www.w3.org/TR/2001/REC-SVG-20010904/DTD/svg10.dtd">
<svg version="1.0" xmlns="http://www.w3.org/2000/svg"
 width="1024.000000pt" height="1024.000000pt" viewBox="0 0 1024.000000 1024.000000"
 preserveAspectRatio="xMidYMid meet">
<metadata>
Created by potrace 1.14, written by Peter Selinger 2001-2017
</metadata>
<g transform="translate(0.000000,1024.000000) scale(0.100000,-0.100000)"
fill="#000000" stroke="none">
<path d="M0 5120 l0 -5120 243 0 242 0 24 58 c14 31 51 112 83 180 32 68 77
167 100 220 71 162 154 325 183 360 30 36 257 151 596 303 239 107 226 102
233 76 10 -36 7 -147 -4 -147 -5 0 -35 -17 -67 -37 -121 -77 -319 -164 -446
-194 -207 -50 -198 -46 -256 -107 -84 -89 -114 -145 -179 -332 -74 -216 -95
-270 -125 -317 -13 -21 -27 -44 -31 -50 -6 -10 961 -13 4818 -13 l4826 0 0
894 0 894 -42 -5 c-130 -15 -204 -43 -330 -122 -43 -28 -66 -37 -73 -30 -14
14 41 57 135 108 77 40 193 71 270 71 l40 0 0 4215 0 4215 -5120 0 -5120 0 0
-5120z m5763 4793 c-33 -32 -67 -72 -76 -89 l-16 -31 102 18 c352 62 662 -41
816 -272 47 -70 92 -201 90 -262 l-1 -42 -8 51 c-35 240 -195 416 -450 496
-106 33 -324 33 -450 0 -129 -34 -236 -92 -170 -92 19 0 102 -52 146 -91 16
-15 36 -19 105 -19 73 0 92 -4 144 -30 42 -21 51 -29 30 -25 -16 3 -79 8 -140
11 -133 7 -255 -15 -389 -69 -47 -19 -84 -32 -82 -28 11 17 178 92 256 115
l85 24 -50 7 c-27 5 -64 14 -82 21 -75 32 -222 6 -388 -67 -98 -43 -183 -99
-284 -187 -34 -30 -61 -51 -61 -47 0 54 281 299 406 355 51 22 139 40 197 40
29 0 38 3 34 14 -4 10 16 23 64 45 38 17 69 36 69 42 0 20 63 99 108 134 25
19 47 35 50 35 2 0 -23 -26 -55 -57z m-541 26 c51 -11 161 -60 171 -77 3 -4
-25 7 -61 25 -142 70 -249 63 -351 -23 -58 -48 -76 -97 -75 -199 0 -67 6 -104
22 -144 12 -30 20 -56 18 -58 -2 -2 -15 14 -31 36 -117 169 -38 381 163 436
61 17 80 17 144 4z m-577 -385 c22 -8 71 -14 109 -14 l69 0 48 -49 c47 -46 60
-71 39 -71 -6 0 -25 16 -42 36 -37 42 -72 61 -129 70 l-43 7 35 -31 34 -31
-34 9 c-44 12 -83 -7 -139 -71 -24 -27 -80 -72 -125 -102 -144 -94 -300 -272
-363 -413 -55 -126 -79 -307 -69 -524 8 -173 56 -476 87 -556 29 -71 99 -143
181 -184 70 -35 54 -40 -30 -9 -96 36 -159 82 -187 136 -32 64 -63 161 -77
240 -12 66 -29 94 -29 46 0 -15 7 -77 15 -137 8 -61 13 -112 10 -114 -14 -14
-68 237 -64 303 0 17 1 41 0 54 l-1 25 -29 -29 c-17 -15 -32 -37 -34 -49 -3
-20 -4 -20 -14 4 -6 14 -14 57 -18 97 l-7 72 50 25 49 25 7 113 c21 349 79
541 213 702 58 70 169 159 251 201 28 15 52 31 52 35 0 4 -14 10 -31 14 -49
10 -235 7 -263 -4 -31 -11 -37 9 -9 31 24 20 283 18 339 -3 l41 -15 34 46 c19
25 51 55 72 67 l39 21 -34 12 c-18 7 -64 15 -101 18 -42 4 -63 9 -55 14 16 11
99 1 153 -17z m1547 -55 c52 -11 144 -53 183 -83 26 -20 20 -20 -42 4 -89 34
-217 52 -315 44 -64 -5 -88 -3 -88 5 0 32 165 50 262 30z m-1539 -76 c-7 -2
-19 -2 -25 0 -7 3 -2 5 12 5 14 0 19 -2 13 -5z m1480 0 c-7 -2 -19 -2 -25 0
-7 3 -2 5 12 5 14 0 19 -2 13 -5z m105 -19 c90 -26 152 -62 208 -121 45 -46
102 -139 92 -148 -2 -2 -30 17 -63 42 -88 66 -173 124 -230 155 -57 31 -53 34
25 13 30 -8 56 -13 57 -11 8 7 -54 40 -116 61 -76 27 -57 33 27 9z m-2118 -13
c0 -6 -4 -12 -9 -15 -13 -9 -119 -229 -150 -314 -58 -157 -96 -375 -107 -610
-4 -78 -11 -145 -15 -148 -15 -9 -10 421 6 516 25 142 121 371 203 484 l36 50
-42 -24 c-86 -49 -184 -172 -225 -285 l-18 -50 5 40 c8 63 79 194 133 247 44
43 155 118 175 118 4 0 8 -4 8 -9z m2389 -262 c71 -41 132 -104 208 -215 71
-105 104 -167 129 -248 13 -42 25 -61 42 -67 19 -7 21 -12 12 -29 -6 -10 -17
-17 -24 -14 -11 4 -16 -12 -21 -68 -4 -40 -18 -107 -31 -148 -13 -41 -24 -82
-24 -91 0 -9 32 -37 73 -64 169 -112 277 -209 277 -248 0 -43 -18 -41 -78 11
-86 74 -273 212 -287 212 -17 0 -32 -38 -59 -160 -42 -181 -124 -349 -218
-443 -24 -23 -71 -57 -105 -75 -73 -39 -211 -88 -268 -96 -22 -3 -31 -3 -20 0
220 62 416 229 496 424 17 41 46 109 66 150 20 41 46 109 59 150 12 41 35 113
50 160 36 113 38 209 6 305 -23 68 -60 140 -68 132 -3 -2 2 -17 11 -33 47 -91
45 -307 -4 -489 -28 -104 -69 -222 -70 -200 -1 6 12 64 28 130 28 114 48 218
35 185 -3 -8 -19 -57 -36 -108 -70 -217 -225 -439 -401 -575 -86 -67 -107 -81
-107 -74 0 3 23 22 52 42 125 90 257 249 340 410 94 183 127 309 135 515 6
167 -6 240 -58 343 -42 83 -128 215 -174 266 -45 49 -38 51 34 10z m-2712
-161 c-3 -8 -6 -5 -6 6 -1 11 2 17 5 13 3 -3 4 -12 1 -19z m3092 -74 c43 -36
69 -90 75 -155 5 -50 5 -51 -4 -12 -17 79 -62 146 -135 201 l-30 23 31 -15
c18 -8 46 -27 63 -42z m298 -260 c34 -24 77 -63 96 -87 36 -44 77 -118 77
-139 0 -6 -12 11 -26 40 -36 73 -103 143 -192 203 -42 28 -79 53 -82 56 -14
15 73 -35 127 -73z m-107 -129 c83 -121 122 -241 124 -385 1 -89 -14 -160 -34
-160 -3 0 -12 46 -18 103 -7 56 -14 113 -18 127 -5 20 -4 22 6 10 28 -37 -29
194 -71 288 -16 34 -26 62 -24 62 2 0 18 -20 35 -45z m-3250 -257 c0 -7 5 -53
11 -102 11 -88 11 -90 -13 -108 -12 -11 -82 -64 -155 -119 -220 -166 -319
-261 -538 -511 -37 -43 -70 -76 -74 -73 -4 2 -16 -15 -26 -38 -10 -23 -36 -69
-57 -102 l-38 -60 0 38 c0 21 4 36 8 33 4 -2 9 4 9 15 2 28 -4 23 -27 -21 -21
-41 -29 -100 -10 -70 5 8 10 10 10 4 0 -19 -13 -24 -28 -11 -11 8 -14 8 -9 0
4 -6 1 -17 -6 -25 -7 -7 -20 -31 -28 -53 -67 -166 -155 -378 -175 -418 -14
-26 -22 -53 -18 -59 4 -7 3 -8 -4 -4 -17 10 -15 -3 2 -20 13 -12 11 -22 -12
-72 -27 -57 -27 -59 -27 -280 0 -197 -2 -222 -16 -222 -12 0 -17 13 -21 58 -9
104 -1 448 11 470 6 11 11 39 11 61 0 23 38 155 94 323 107 321 119 352 184
463 131 225 277 384 529 575 83 63 150 117 148 119 -7 6 -241 -167 -360 -266
-38 -32 -114 -93 -168 -136 -256 -203 -352 -334 -421 -571 -37 -127 -47 -193
-56 -346 l-8 -135 3 170 c5 252 52 438 150 591 35 54 184 224 246 280 17 16
52 49 78 72 103 97 491 379 696 505 97 60 105 64 105 45z m247 -35 c-3 -10 -5
-2 -5 17 0 19 2 27 5 18 2 -10 2 -26 0 -35z m10 -45 c-3 -8 -6 -5 -6 6 -1 11
2 17 5 13 3 -3 4 -12 1 -19z m3188 -350 c196 -222 288 -352 382 -543 112 -226
272 -638 280 -724 4 -31 12 -66 20 -78 12 -19 12 -28 -1 -68 -12 -35 -16 -90
-16 -240 0 -107 -4 -195 -9 -195 -9 0 -24 104 -22 160 7 285 7 283 -17 335
-13 27 -28 77 -33 109 -13 78 -34 125 -151 339 -106 192 -144 250 -161 240 -5
-3 -7 -1 -3 5 10 17 -14 112 -48 187 -44 96 -181 313 -266 424 -62 80 -71 96
-65 121 4 17 10 30 14 30 3 0 47 -46 96 -102z m-3261 -64 c3 -8 2 -12 -4 -9
-6 3 -10 10 -10 16 0 14 7 11 14 -7z m2731 -103 c-6 -5 -21 -11 -35 -15 -21
-5 -20 -3 5 9 35 17 42 18 30 6z m76 -199 c32 -35 73 -96 101 -153 52 -104 90
-163 64 -99 -7 19 -26 62 -41 94 -34 77 -13 59 60 -51 53 -81 104 -145 269
-347 71 -87 97 -131 126 -216 13 -36 25 -67 27 -70 3 -3 3 63 1 145 -4 140 -3
146 9 90 16 -78 15 -191 -2 -235 -7 -19 -14 -28 -14 -19 -2 44 -164 319 -179
304 -2 -2 12 -50 31 -107 39 -116 44 -142 56 -283 5 -58 13 -101 20 -103 7 -2
11 -35 11 -90 0 -112 -20 -156 -93 -204 l-53 -35 23 69 c28 86 53 216 53 276
0 50 -51 275 -57 255 -3 -7 0 -36 6 -63 24 -109 10 -327 -25 -403 -14 -30 -15
-27 -10 63 12 204 -26 426 -103 602 -52 119 -117 219 -220 341 -83 99 -77 105
23 24 l48 -40 -32 59 c-42 75 -81 133 -144 213 -61 78 -32 67 45 -17z m228
-157 c82 -41 157 -151 166 -242 l5 -48 -10 39 c-16 60 -79 174 -114 202 -17
15 -49 37 -71 50 -53 31 -37 31 24 -1z m-3683 -221 c-74 -149 -107 -313 -113
-569 -4 -189 1 -238 42 -385 6 -24 6 -24 -9 -6 -8 10 -20 15 -26 11 -6 -4 -9
-1 -8 7 2 7 -3 12 -9 11 -7 -2 -12 3 -10 10 1 6 -4 11 -10 10 -7 -2 -12 0 -11
5 0 4 -11 32 -25 62 -58 122 -85 440 -51 586 l19 79 6 -175 c9 -247 10 -249
25 -108 21 188 80 362 164 476 17 24 34 42 36 39 3 -2 -6 -26 -20 -53z m-1956
-478 c0 -3 -4 -8 -10 -11 -5 -3 -10 -1 -10 4 0 6 5 11 10 11 6 0 10 -2 10 -4z
m95 -14 c-3 -3 -11 0 -18 7 -9 10 -8 11 6 5 10 -3 15 -9 12 -12z m5862 -74
c-3 -7 -5 -2 -5 12 0 14 2 19 5 13 2 -7 2 -19 0 -25z m-5990 0 c-3 -8 -6 -5
-6 6 -1 11 2 17 5 13 3 -3 4 -12 1 -19z m240 -20 c-3 -7 -5 -2 -5 12 0 14 2
19 5 13 2 -7 2 -19 0 -25z m-135 -10 c-7 -7 -12 -8 -12 -2 0 14 12 26 19 19 2
-3 -1 -11 -7 -17z m5895 -135 c-2 -27 -3 -5 -3 47 0 52 1 74 3 48 2 -27 2 -69
0 -95z m308 16 l4 -44 -8 38 c-4 21 -22 53 -40 70 -42 45 -39 54 5 13 28 -26
36 -41 39 -77z m-6208 39 c-3 -8 -6 -5 -6 6 -1 11 2 17 5 13 3 -3 4 -12 1 -19z
m103 18 c0 -2 -7 -9 -15 -16 -13 -11 -14 -10 -9 4 5 14 24 23 24 12z m144 -21
c3 -8 1 -15 -4 -15 -6 0 -10 7 -10 15 0 8 2 15 4 15 2 0 6 -7 10 -15z m-110
-72 c-5 -5 -12 -12 -16 -18 -4 -6 -8 -2 -8 8 0 9 7 17 17 17 9 0 12 -3 7 -7z
m-132 -28 c3 -14 1 -25 -3 -25 -5 0 -9 11 -9 25 0 14 2 25 4 25 2 0 6 -11 8
-25z m45 -7 c-3 -7 -5 -2 -5 12 0 14 2 19 5 13 2 -7 2 -19 0 -25z m290 10 c-3
-8 -6 -5 -6 6 -1 11 2 17 5 13 3 -3 4 -12 1 -19z m147 -14 c3 -8 2 -12 -4 -9
-6 3 -10 10 -10 16 0 14 7 11 14 -7z m153 -6 c-3 -8 -6 -5 -6 6 -1 11 2 17 5
13 3 -3 4 -12 1 -19z m993 -70 c5 -13 9 -17 9 -10 1 6 10 12 21 12 21 0 27
-15 10 -25 -5 -3 -10 -1 -10 5 0 7 -7 5 -16 -5 -12 -11 -17 -43 -21 -115 -3
-55 -9 -97 -14 -95 -4 3 -15 29 -25 58 -11 31 -20 45 -22 34 -2 -9 -8 -15 -13
-12 -5 4 -10 -2 -10 -12 -2 -30 -18 59 -18 103 -1 27 5 46 17 56 38 34 79 36
92 6z m4373 -9 c9 -12 17 -31 17 -43 0 -36 -31 -129 -51 -154 l-18 -24 -6 29
c-3 15 -15 63 -26 105 -24 96 -16 124 34 114 18 -3 40 -16 50 -27z m174 -6
c-3 -10 -5 -4 -5 12 0 17 2 24 5 18 2 -7 2 -21 0 -30z m11 -80 c-3 -13 19 -30
82 -66 47 -26 97 -59 111 -73 28 -27 42 -77 31 -116 -5 -19 -8 -14 -17 27 -10
45 -17 55 -78 100 -36 28 -103 70 -147 94 -45 24 -79 45 -77 48 3 2 19 -3 36
-11 43 -23 51 -20 52 17 1 17 3 24 6 15 2 -10 3 -26 1 -35z m-112 26 c3 -6 1
-16 -5 -22 -7 -7 -11 -57 -12 -131 -1 -135 -12 -125 -28 24 -11 102 -6 140 20
140 10 0 21 -5 25 -11z m-4616 -29 c-14 -10 -68 -43 -120 -71 -52 -29 -108
-61 -123 -72 -16 -10 -31 -17 -34 -14 -6 6 63 52 192 128 82 48 132 66 85 29z
m-1253 -22 c-3 -8 -6 -5 -6 6 -1 11 2 17 5 13 3 -3 4 -12 1 -19z m908 -314
c-34 -29 -36 -32 -31 -77 5 -36 1 -60 -15 -98 l-22 -50 -24 25 c-31 34 -34 33
-22 -6 18 -64 28 -156 39 -363 6 -115 17 -318 26 -450 14 -218 17 -243 40
-290 l25 -50 -64 64 -65 63 -6 117 c-4 64 -14 193 -22 286 -8 94 -19 222 -24
285 -5 63 -22 215 -37 338 -19 158 -24 228 -17 240 11 19 172 107 219 120 l30
8 3 -65 c3 -65 3 -66 -33 -97z m62 124 c2 -24 0 -29 -7 -18 -11 17 -14 67 -3
57 3 -4 8 -22 10 -39z m5401 -18 c48 -27 94 -54 102 -59 22 -15 18 -105 -55
-1086 l-15 -200 -45 -44 c-48 -46 -53 -47 -31 -3 8 16 16 80 20 164 13 303 77
921 102 997 7 25 14 58 14 74 l0 29 -59 -7 c-57 -7 -59 -6 -65 20 -7 26 -10
27 -50 23 -44 -5 -44 -5 -50 31 -3 20 -6 56 -6 80 0 42 1 43 26 37 14 -4 65
-29 112 -56z m-5921 -12 c-3 -8 -6 -5 -6 6 -1 11 2 17 5 13 3 -3 4 -12 1 -19z
m263 2 c0 -5 -9 -14 -20 -20 -22 -12 -27 -1 -8 18 14 14 28 16 28 2z m-53 -22
c-3 -8 -6 -5 -6 6 -1 11 2 17 5 13 3 -3 4 -12 1 -19z m-513 -83 c-4 -8 -8 -15
-10 -15 -2 0 -4 7 -4 15 0 8 4 15 10 15 5 0 7 -7 4 -15z m103 -17 c-3 -7 -5
-2 -5 12 0 14 2 19 5 13 2 -7 2 -19 0 -25z m-57 14 c0 -5 -7 -9 -15 -9 -8 0
-12 4 -9 9 3 4 9 8 15 8 5 0 9 -4 9 -8z m440 -100 c0 -25 -10 -26 -14 0 -1 7
-5 19 -9 25 -6 9 -3 11 7 7 9 -3 16 -18 16 -32z m-920 13 c0 -8 -2 -15 -4 -15
-2 0 -6 7 -10 15 -3 8 -1 15 4 15 6 0 10 -7 10 -15z m849 -7 c-1 -17 -2 -19
-6 -5 -6 22 -23 22 -23 0 0 -9 -3 -14 -6 -10 -11 10 4 37 21 37 9 0 15 -8 14
-22z m-875 -21 c7 -6 6 -7 -4 -4 -8 2 -16 12 -17 23 -2 13 -1 15 4 4 3 -8 11
-19 17 -23z m466 12 c0 -6 -4 -7 -10 -4 -5 3 -10 11 -10 16 0 6 5 7 10 4 6 -3
10 -11 10 -16z m103 -10 c-9 -9 -12 -7 -10 9 1 14 5 18 11 12 7 -7 6 -14 -1
-21z m-463 -69 c0 -11 -4 -20 -10 -20 -5 0 -10 2 -10 4 0 2 -3 11 -6 20 -4 11
-1 16 10 16 9 0 16 -8 16 -20z m-103 -22 c-3 -7 -5 -2 -5 12 0 14 2 19 5 13 2
-7 2 -19 0 -25z m33 -1 c0 -5 -4 -5 -10 -2 -5 3 -10 14 -10 23 0 15 2 15 10 2
5 -8 10 -19 10 -23z m430 -2 c0 -5 -5 -3 -10 5 -5 8 -10 20 -10 25 0 6 5 3 10
-5 5 -8 10 -19 10 -25z m120 25 c0 -5 -2 -10 -4 -10 -3 0 -8 5 -11 10 -3 6 -1
10 4 10 6 0 11 -4 11 -10z m43 -10 c-3 -12 -8 -19 -11 -16 -5 6 5 36 12 36 2
0 2 -9 -1 -20z m114 -12 c-3 -7 -5 -2 -5 12 0 14 2 19 5 13 2 -7 2 -19 0 -25z
m-202 3 c-3 -6 -11 -11 -16 -11 -5 0 -4 6 3 14 14 16 24 13 13 -3z m222 -93
c-3 -8 -6 -5 -6 6 -1 11 2 17 5 13 3 -3 4 -12 1 -19z m-653 -3 c-4 -8 -8 -15
-10 -15 -2 0 -4 7 -4 15 0 8 4 15 10 15 5 0 7 -7 4 -15z m106 0 c0 -8 -2 -15
-4 -15 -2 0 -6 7 -10 15 -3 8 -1 15 4 15 6 0 10 -7 10 -15z m87 -17 c-3 -8 -6
-5 -6 6 -1 11 2 17 5 13 3 -3 4 -12 1 -19z m-110 -200 c-3 -7 -5 -2 -5 12 0
14 2 19 5 13 2 -7 2 -19 0 -25z m26 -19 c-6 -6 -7 3 -4 23 4 28 6 29 9 9 2
-13 0 -27 -5 -32z m172 17 c0 -15 -4 -21 -9 -16 -5 5 -6 16 -3 24 9 22 12 20
12 -8z m120 3 c-6 -29 -15 -37 -15 -12 0 17 8 33 16 33 2 0 1 -10 -1 -21z
m243 7 c-7 -8 -15 -12 -17 -11 -5 6 10 25 20 25 5 0 4 -6 -3 -14z m-731 -108
c-3 -7 -5 -2 -5 12 0 14 2 19 5 13 2 -7 2 -19 0 -25z m90 -10 c-3 -8 -6 -5 -6
6 -1 11 2 17 5 13 3 -3 4 -12 1 -19z m31 -3 c-3 -3 -9 2 -12 12 -6 14 -5 15 5
6 7 -7 10 -15 7 -18z m19 -7 c-3 -7 -5 -2 -5 12 0 14 2 19 5 13 2 -7 2 -19 0
-25z m20 10 c-3 -8 -6 -5 -6 6 -1 11 2 17 5 13 3 -3 4 -12 1 -19z m53 2 c0
-11 -4 -20 -10 -20 -5 0 -10 9 -10 20 0 11 5 20 10 20 6 0 10 -9 10 -20z
m-333 -12 c-3 -8 -6 -5 -6 6 -1 11 2 17 5 13 3 -3 4 -12 1 -19z m753 2 c0 -5
-10 -10 -22 -9 -22 0 -22 1 -3 9 11 5 21 9 23 9 1 1 2 -3 2 -9z m-737 -95 c-3
-9 -8 -14 -10 -11 -3 3 -2 9 2 15 9 16 15 13 8 -4z m217 1 c0 -8 -7 -16 -15
-20 -13 -4 -14 -2 -5 14 13 23 20 26 20 6z m-743 -303 c-3 -10 -5 -4 -5 12 0
17 2 24 5 18 2 -7 2 -21 0 -30z m50 31 c-3 -3 -12 -4 -19 -1 -8 3 -5 6 6 6 11
1 17 -2 13 -5z m830 -236 c-3 -7 -5 -2 -5 12 0 14 2 19 5 13 2 -7 2 -19 0 -25z
m5391 -148 c-3 -28 -5 -23 -13 30 -6 36 -8 76 -6 90 7 34 23 -72 19 -120z
m-14 -85 c38 -139 67 -288 65 -339 -1 -17 -12 19 -24 79 -13 61 -37 155 -54
210 -27 91 -35 135 -32 174 2 26 9 7 45 -124z m-4930 49 c3 -8 2 -12 -4 -9 -6
3 -10 10 -10 16 0 14 7 11 14 -7z m-136 -18 c-7 -8 -15 -12 -17 -11 -5 6 10
25 20 25 5 0 4 -6 -3 -14z m68 -1 c-3 -23 -12 -26 -13 -5 -1 11 2 20 7 20 4 0
7 -7 6 -15z m44 5 c0 -5 -2 -10 -4 -10 -3 0 -8 5 -11 10 -3 6 -1 10 4 10 6 0
11 -4 11 -10z m56 -15 c-9 -9 -16 -13 -16 -8 0 12 22 34 28 28 2 -2 -3 -11
-12 -20z m1270 -72 c-9 -43 -25 -112 -37 -153 -11 -41 -23 -85 -25 -98 -5 -26
-81 -178 -154 -308 -27 -49 -57 -111 -66 -137 -9 -27 -18 -46 -20 -44 -3 3 4
29 15 58 l21 53 -25 38 c-47 71 -53 162 -15 218 8 11 8 7 3 -15 -15 -58 -9
-132 13 -162 12 -15 27 -28 35 -28 8 0 39 48 70 108 30 59 61 113 67 119 7 7
12 19 12 27 0 9 18 72 40 141 22 69 45 154 51 190 13 78 19 100 26 83 2 -7 -3
-47 -11 -90z m3518 42 c-8 -28 -19 -77 -24 -110 l-9 -60 4 70 c2 39 11 90 20
113 23 57 28 49 9 -13z m-4917 13 c-3 -7 -5 -2 -5 12 0 14 2 19 5 13 2 -7 2
-19 0 -25z m908 2 c17 -11 37 -32 44 -47 11 -25 7 -22 -36 17 -26 25 -50 46
-52 48 -2 1 -1 2 4 2 4 0 22 -9 40 -20z m4778 0 c-46 -20 -98 -90 -90 -119 3
-9 28 -80 56 -158 61 -172 88 -275 95 -368 6 -66 5 -64 -18 42 -32 149 -104
369 -153 466 l-14 28 -34 -20 c-46 -27 -99 -40 -117 -30 -12 7 -20 -5 -41 -59
-33 -86 -77 -228 -77 -249 0 -9 -3 -14 -6 -10 -9 8 12 92 52 212 19 55 34 113
34 128 0 27 1 28 22 13 12 -9 38 -16 56 -16 28 0 36 5 45 29 10 26 15 29 51
28 37 -2 42 1 62 38 17 29 33 43 61 52 56 17 64 14 16 -7z m-5136 -12 c-3 -8
-6 -5 -6 6 -1 11 2 17 5 13 3 -3 4 -12 1 -19z m530 -111 c12 -17 25 -41 29
-52 3 -11 -6 -1 -22 23 -20 29 -35 42 -52 42 -13 0 -20 4 -17 10 12 20 40 9
62 -23z m103 -27 c11 -7 5 -10 -22 -10 -21 0 -38 5 -38 10 0 13 40 13 60 0z
m301 -267 c-6 -76 -19 -214 -31 -308 -11 -93 -21 -206 -22 -250 -1 -64 -3 -73
-9 -45 -14 60 -31 288 -24 327 3 21 8 56 10 78 5 37 4 38 -5 10 -10 -33 -74
-91 -130 -120 -29 -14 -21 -4 43 60 42 43 77 81 77 86 0 4 6 14 14 21 8 8 28
100 47 219 33 196 34 201 37 132 2 -39 -2 -134 -7 -210z m3835 218 c-33 -63
-71 -217 -86 -342 -8 -58 -11 -187 -9 -323 4 -247 -4 -255 -22 -21 -20 269 20
533 104 687 38 70 48 69 13 -1z m-3443 -99 c36 -158 33 -203 -24 -396 -33
-114 -35 -138 -13 -203 32 -96 106 -205 219 -323 86 -90 115 -127 131 -170
l22 -55 7 85 c7 93 -12 284 -46 449 -23 115 -24 110 4 120 67 25 63 27 78 -46
10 -48 14 -151 14 -353 0 -265 -2 -291 -23 -368 -50 -185 -132 -313 -271 -420
-47 -36 -89 -71 -93 -76 -3 -5 -34 4 -70 22 -58 28 -64 29 -81 15 -25 -23 -38
-81 -28 -125 5 -21 7 -38 5 -38 -4 0 -40 27 -138 101 -32 25 -144 66 -211 78
-71 13 -219 1 -360 -30 -49 -11 -99 -22 -110 -24 -11 -2 -35 4 -54 14 l-35 18
65 48 c136 101 231 124 448 106 181 -15 306 -40 419 -85 49 -20 93 -36 96 -36
29 0 202 186 262 282 39 61 91 168 102 210 9 33 7 45 -20 100 -23 49 -57 90
-154 185 -128 126 -192 211 -218 291 -21 65 -36 172 -35 262 l1 75 14 -65 c23
-101 25 -101 50 0 44 173 47 234 18 398 -10 62 14 24 29 -46z m2961 -159 c9
-9 28 80 36 162 l7 80 2 -70 c0 -38 -5 -103 -13 -144 -16 -81 -7 -177 19 -217
8 -12 42 -41 77 -64 52 -34 69 -41 101 -38 33 3 36 2 21 -9 -40 -29 -111 -7
-175 54 l-26 24 -8 -92 c-4 -51 -15 -120 -26 -153 -49 -158 -197 -336 -364
-437 -49 -30 -110 -74 -135 -99 -24 -25 -38 -34 -29 -20 9 14 65 64 125 112
116 93 134 111 207 201 75 92 133 221 162 362 19 94 19 166 -1 318 -11 85 -13
145 -8 197 l8 75 7 -119 c5 -65 10 -120 13 -123z m-3688 188 c-4 -6 -17 -16
-29 -22 l-22 -12 23 25 c12 13 21 27 19 30 -2 3 0 2 6 -2 5 -5 6 -13 3 -19z
m846 -50 c20 -14 47 -45 60 -69 l23 -43 -25 -19 c-14 -11 -27 -20 -30 -20 -3
1 -31 48 -62 106 -61 114 -62 113 34 45z m2197 -240 c-40 -83 -75 -151 -78
-151 -4 0 -15 14 -25 30 l-18 31 74 95 c40 53 82 108 93 124 11 15 21 27 23
25 2 -1 -29 -71 -69 -154z m316 127 c-6 -31 -16 -56 -50 -132 -22 -47 -145
-172 -145 -147 0 6 10 17 22 25 42 30 89 98 83 120 -5 16 -4 17 3 7 11 -15 33
22 67 112 21 55 29 61 20 15z m130 -78 c-15 -212 -49 -321 -168 -527 -117
-205 -188 -459 -191 -686 -1 -94 -3 -110 -10 -80 -16 65 -12 290 7 381 30 142
90 283 187 437 10 17 29 66 41 110 55 198 134 465 138 465 2 0 0 -45 -4 -100z
m-2512 -27 c19 -43 43 -102 53 -132 l17 -54 -24 -18 c-13 -10 -28 -17 -32 -16
-5 1 -19 32 -32 67 -13 36 -35 95 -49 132 l-26 67 22 16 c13 8 25 15 29 15 3
0 22 -35 42 -77z m1949 -200 c30 -36 30 -47 0 -19 -18 17 -32 31 -32 33 0 9
19 1 32 -14z m1685 -15 c-3 -7 -5 -2 -5 12 0 14 2 19 5 13 2 -7 2 -19 0 -25z
m-1707 -75 c0 -18 58 -133 78 -155 8 -10 12 -18 7 -18 -9 0 -16 9 -81 98 -25
34 -57 88 -70 120 l-26 57 46 -45 c25 -24 46 -50 46 -57z m-2578 -41 c-4 -59
7 -155 32 -272 40 -184 39 -194 -12 -70 -48 118 -58 184 -44 285 11 76 20 115
26 115 1 0 0 -26 -2 -58z m2558 -33 c12 -22 13 -116 2 -123 -15 -9 -30 36 -35
96 -3 44 -1 55 10 51 7 -3 18 -14 23 -24z m3 -312 c6 -198 22 -273 92 -455 76
-194 198 -386 240 -378 11 2 61 22 110 44 50 22 131 53 180 70 114 39 343 86
415 85 78 -1 201 -51 321 -131 l98 -65 -39 -18 c-95 -43 -106 -42 -185 6 -94
57 -163 79 -216 71 -50 -8 -134 -50 -224 -111 -46 -32 -65 -41 -60 -28 15 36
17 103 5 133 -22 53 -24 53 -378 -103 -193 -85 -213 -89 -120 -20 l50 36 -55
56 c-133 137 -219 282 -257 436 -28 111 -43 305 -35 458 l7 128 23 -21 c21
-20 23 -31 28 -193z m-2177 -185 c69 -215 102 -308 128 -357 8 -16 13 -31 11
-34 -18 -17 -228 164 -318 274 l-41 50 39 -35 38 -35 -24 40 c-19 33 -11 27
45 -33 38 -40 100 -100 137 -133 l68 -60 -49 88 c-87 157 -141 365 -139 542
l0 86 20 -94 c11 -52 49 -186 85 -299z m4071 -541 c81 -37 497 -459 513 -521
5 -19 12 -120 15 -225 l7 -190 -32 -90 c-45 -127 -46 -127 -59 -49 -20 119
-61 235 -121 349 -46 87 -61 129 -75 200 -19 101 -42 154 -116 260 -54 79 -94
115 -161 145 -82 37 -112 24 -248 -111 -42 -41 -100 -96 -129 -124 l-54 -50
69 82 c98 118 146 199 142 241 -4 32 -1 35 46 59 94 48 138 53 203 24z m-5372
-46 c125 -48 136 -54 98 -55 -59 0 -71 -7 -94 -52 -23 -46 -19 -81 17 -143 30
-52 148 -182 250 -276 137 -124 115 -128 -36 -5 -177 143 -296 276 -351 389
-13 26 -30 47 -38 47 -21 0 -140 -96 -211 -169 -47 -49 -68 -83 -122 -202
-116 -254 -175 -436 -199 -616 -11 -81 -8 -204 6 -249 17 -53 -41 67 -86 180
l-51 129 11 226 c16 327 15 316 56 367 38 46 314 303 406 377 82 67 150 107
178 107 15 -1 89 -25 166 -55z m6704 -1451 c91 -32 119 -65 237 -279 56 -101
38 -86 -26 21 -78 131 -111 164 -186 187 -78 25 -198 90 -364 197 -74 48 -150
95 -167 104 -18 9 -33 18 -33 21 0 2 109 -49 243 -114 133 -65 266 -127 296
-137z"/>
<path d="M6880 8579 c0 -5 5 -7 10 -4 6 3 10 8 10 11 0 2 -4 4 -10 4 -5 0 -10
-5 -10 -11z"/>
<path d="M6753 8470 c0 -41 2 -58 4 -37 2 20 2 54 0 75 -2 20 -4 3 -4 -38z"/>
<path d="M6742 8370 c0 -14 2 -19 5 -12 2 6 2 18 0 25 -3 6 -5 1 -5 -13z"/>
<path d="M2966 7263 c-6 -14 -5 -15 5 -6 7 7 10 15 7 18 -3 3 -9 -2 -12 -12z"/>
<path d="M7314 6305 c0 -60 1 -84 3 -52 2 32 2 81 0 110 -2 29 -3 3 -3 -58z"/>
</g>
</svg>
